<mxfile host="Electron" modified="2023-11-26T04:17:59.080Z" agent="Mozilla/5.0 (Windows NT 10.0; Win64; x64) AppleWebKit/537.36 (KHTML, like Gecko) draw.io/22.1.2 Chrome/114.0.5735.289 Electron/25.9.4 Safari/537.36" etag="iN39Bq7LhwxrN2iEcAcG" version="22.1.2" type="device">
  <diagram id="C5RBs43oDa-KdzZeNtuy" name="Page-1">
    <mxGraphModel dx="1577" dy="726" grid="1" gridSize="10" guides="1" tooltips="1" connect="1" arrows="1" fold="1" page="1" pageScale="1" pageWidth="827" pageHeight="1169" math="0" shadow="0">
      <root>
        <mxCell id="WIyWlLk6GJQsqaUBKTNV-0" />
        <mxCell id="WIyWlLk6GJQsqaUBKTNV-1" parent="WIyWlLk6GJQsqaUBKTNV-0" />
        <mxCell id="28gl8YwfFNOOHwbT9DVS-2" value="" style="edgeStyle=orthogonalEdgeStyle;rounded=0;orthogonalLoop=1;jettySize=auto;html=1;" parent="WIyWlLk6GJQsqaUBKTNV-1" source="28gl8YwfFNOOHwbT9DVS-0" target="28gl8YwfFNOOHwbT9DVS-1" edge="1">
          <mxGeometry relative="1" as="geometry" />
        </mxCell>
        <mxCell id="28gl8YwfFNOOHwbT9DVS-0" value="bool prime(int n)" style="ellipse;whiteSpace=wrap;html=1;" parent="WIyWlLk6GJQsqaUBKTNV-1" vertex="1">
          <mxGeometry x="300" y="210" width="120" height="80" as="geometry" />
        </mxCell>
        <mxCell id="28gl8YwfFNOOHwbT9DVS-4" value="" style="edgeStyle=orthogonalEdgeStyle;rounded=0;orthogonalLoop=1;jettySize=auto;html=1;" parent="WIyWlLk6GJQsqaUBKTNV-1" source="28gl8YwfFNOOHwbT9DVS-1" target="28gl8YwfFNOOHwbT9DVS-3" edge="1">
          <mxGeometry relative="1" as="geometry" />
        </mxCell>
        <mxCell id="28gl8YwfFNOOHwbT9DVS-5" value="true" style="edgeLabel;html=1;align=center;verticalAlign=middle;resizable=0;points=[];" parent="28gl8YwfFNOOHwbT9DVS-4" vertex="1" connectable="0">
          <mxGeometry x="-0.0571" y="-4" relative="1" as="geometry">
            <mxPoint y="1" as="offset" />
          </mxGeometry>
        </mxCell>
        <mxCell id="28gl8YwfFNOOHwbT9DVS-7" value="" style="edgeStyle=orthogonalEdgeStyle;rounded=0;orthogonalLoop=1;jettySize=auto;html=1;" parent="WIyWlLk6GJQsqaUBKTNV-1" source="28gl8YwfFNOOHwbT9DVS-1" target="28gl8YwfFNOOHwbT9DVS-6" edge="1">
          <mxGeometry relative="1" as="geometry" />
        </mxCell>
        <mxCell id="28gl8YwfFNOOHwbT9DVS-8" value="false" style="edgeLabel;html=1;align=center;verticalAlign=middle;resizable=0;points=[];" parent="28gl8YwfFNOOHwbT9DVS-7" vertex="1" connectable="0">
          <mxGeometry x="-0.2" y="1" relative="1" as="geometry">
            <mxPoint as="offset" />
          </mxGeometry>
        </mxCell>
        <mxCell id="28gl8YwfFNOOHwbT9DVS-1" value="n&amp;lt;2" style="rhombus;whiteSpace=wrap;html=1;" parent="WIyWlLk6GJQsqaUBKTNV-1" vertex="1">
          <mxGeometry x="510" y="210" width="80" height="80" as="geometry" />
        </mxCell>
        <mxCell id="28gl8YwfFNOOHwbT9DVS-3" value="return false;" style="rounded=0;whiteSpace=wrap;html=1;" parent="WIyWlLk6GJQsqaUBKTNV-1" vertex="1">
          <mxGeometry x="660" y="220" width="120" height="60" as="geometry" />
        </mxCell>
        <mxCell id="28gl8YwfFNOOHwbT9DVS-10" value="" style="edgeStyle=orthogonalEdgeStyle;rounded=0;orthogonalLoop=1;jettySize=auto;html=1;" parent="WIyWlLk6GJQsqaUBKTNV-1" source="28gl8YwfFNOOHwbT9DVS-6" target="28gl8YwfFNOOHwbT9DVS-9" edge="1">
          <mxGeometry relative="1" as="geometry" />
        </mxCell>
        <mxCell id="28gl8YwfFNOOHwbT9DVS-11" value="true" style="edgeLabel;html=1;align=center;verticalAlign=middle;resizable=0;points=[];" parent="28gl8YwfFNOOHwbT9DVS-10" vertex="1" connectable="0">
          <mxGeometry x="-0.0286" y="-3" relative="1" as="geometry">
            <mxPoint as="offset" />
          </mxGeometry>
        </mxCell>
        <mxCell id="28gl8YwfFNOOHwbT9DVS-57" value="" style="edgeStyle=orthogonalEdgeStyle;rounded=0;orthogonalLoop=1;jettySize=auto;html=1;" parent="WIyWlLk6GJQsqaUBKTNV-1" source="28gl8YwfFNOOHwbT9DVS-6" target="28gl8YwfFNOOHwbT9DVS-53" edge="1">
          <mxGeometry relative="1" as="geometry" />
        </mxCell>
        <mxCell id="28gl8YwfFNOOHwbT9DVS-6" value="n==2||n==3" style="rhombus;whiteSpace=wrap;html=1;" parent="WIyWlLk6GJQsqaUBKTNV-1" vertex="1">
          <mxGeometry x="510" y="340" width="80" height="80" as="geometry" />
        </mxCell>
        <mxCell id="28gl8YwfFNOOHwbT9DVS-9" value="return true;" style="rounded=0;whiteSpace=wrap;html=1;" parent="WIyWlLk6GJQsqaUBKTNV-1" vertex="1">
          <mxGeometry x="680" y="350" width="120" height="60" as="geometry" />
        </mxCell>
        <mxCell id="28gl8YwfFNOOHwbT9DVS-14" value="false" style="text;html=1;align=center;verticalAlign=middle;resizable=0;points=[];autosize=1;strokeColor=none;fillColor=none;" parent="WIyWlLk6GJQsqaUBKTNV-1" vertex="1">
          <mxGeometry x="525" y="440" width="50" height="30" as="geometry" />
        </mxCell>
        <mxCell id="28gl8YwfFNOOHwbT9DVS-31" value="i++" style="rounded=0;whiteSpace=wrap;html=1;" parent="WIyWlLk6GJQsqaUBKTNV-1" vertex="1">
          <mxGeometry x="770" y="480" width="120" height="60" as="geometry" />
        </mxCell>
        <mxCell id="28gl8YwfFNOOHwbT9DVS-44" value="" style="edgeStyle=orthogonalEdgeStyle;rounded=0;orthogonalLoop=1;jettySize=auto;html=1;" parent="WIyWlLk6GJQsqaUBKTNV-1" source="28gl8YwfFNOOHwbT9DVS-47" target="28gl8YwfFNOOHwbT9DVS-49" edge="1">
          <mxGeometry relative="1" as="geometry" />
        </mxCell>
        <mxCell id="28gl8YwfFNOOHwbT9DVS-45" value="false" style="edgeLabel;html=1;align=center;verticalAlign=middle;resizable=0;points=[];" parent="28gl8YwfFNOOHwbT9DVS-44" vertex="1" connectable="0">
          <mxGeometry x="-0.2885" relative="1" as="geometry">
            <mxPoint y="1" as="offset" />
          </mxGeometry>
        </mxCell>
        <mxCell id="28gl8YwfFNOOHwbT9DVS-46" value="" style="edgeStyle=orthogonalEdgeStyle;rounded=0;orthogonalLoop=1;jettySize=auto;html=1;" parent="WIyWlLk6GJQsqaUBKTNV-1" source="28gl8YwfFNOOHwbT9DVS-47" target="28gl8YwfFNOOHwbT9DVS-50" edge="1">
          <mxGeometry relative="1" as="geometry" />
        </mxCell>
        <mxCell id="28gl8YwfFNOOHwbT9DVS-47" value="n%i == 0" style="rhombus;whiteSpace=wrap;html=1;" parent="WIyWlLk6GJQsqaUBKTNV-1" vertex="1">
          <mxGeometry x="900" y="470" width="80" height="80" as="geometry" />
        </mxCell>
        <mxCell id="28gl8YwfFNOOHwbT9DVS-48" value="true" style="edgeLabel;html=1;align=center;verticalAlign=middle;resizable=0;points=[];" parent="WIyWlLk6GJQsqaUBKTNV-1" vertex="1" connectable="0">
          <mxGeometry x="1000" y="510" as="geometry" />
        </mxCell>
        <mxCell id="28gl8YwfFNOOHwbT9DVS-59" style="edgeStyle=orthogonalEdgeStyle;rounded=0;orthogonalLoop=1;jettySize=auto;html=1;exitX=0.5;exitY=1;exitDx=0;exitDy=0;" parent="WIyWlLk6GJQsqaUBKTNV-1" source="28gl8YwfFNOOHwbT9DVS-49" edge="1">
          <mxGeometry relative="1" as="geometry">
            <mxPoint x="620" y="520" as="targetPoint" />
            <mxPoint x="865" y="724" as="sourcePoint" />
          </mxGeometry>
        </mxCell>
        <mxCell id="28gl8YwfFNOOHwbT9DVS-49" value="return false;" style="rounded=0;whiteSpace=wrap;html=1;" parent="WIyWlLk6GJQsqaUBKTNV-1" vertex="1">
          <mxGeometry x="870" y="602" width="120" height="60" as="geometry" />
        </mxCell>
        <mxCell id="28gl8YwfFNOOHwbT9DVS-60" style="edgeStyle=orthogonalEdgeStyle;rounded=0;orthogonalLoop=1;jettySize=auto;html=1;exitX=0.5;exitY=1;exitDx=0;exitDy=0;" parent="WIyWlLk6GJQsqaUBKTNV-1" source="28gl8YwfFNOOHwbT9DVS-50" edge="1">
          <mxGeometry relative="1" as="geometry">
            <mxPoint x="620" y="510" as="targetPoint" />
            <Array as="points">
              <mxPoint x="1090" y="770" />
              <mxPoint x="620" y="770" />
            </Array>
          </mxGeometry>
        </mxCell>
        <mxCell id="28gl8YwfFNOOHwbT9DVS-50" value="return true;" style="rounded=0;whiteSpace=wrap;html=1;" parent="WIyWlLk6GJQsqaUBKTNV-1" vertex="1">
          <mxGeometry x="1030" y="480" width="120" height="60" as="geometry" />
        </mxCell>
        <mxCell id="28gl8YwfFNOOHwbT9DVS-51" value="" style="edgeStyle=orthogonalEdgeStyle;rounded=0;orthogonalLoop=1;jettySize=auto;html=1;exitX=1;exitY=0.5;exitDx=0;exitDy=0;" parent="WIyWlLk6GJQsqaUBKTNV-1" source="28gl8YwfFNOOHwbT9DVS-31" target="28gl8YwfFNOOHwbT9DVS-47" edge="1">
          <mxGeometry relative="1" as="geometry">
            <mxPoint x="840" y="510" as="sourcePoint" />
          </mxGeometry>
        </mxCell>
        <mxCell id="28gl8YwfFNOOHwbT9DVS-55" value="" style="edgeStyle=orthogonalEdgeStyle;rounded=0;orthogonalLoop=1;jettySize=auto;html=1;" parent="WIyWlLk6GJQsqaUBKTNV-1" source="28gl8YwfFNOOHwbT9DVS-53" target="28gl8YwfFNOOHwbT9DVS-54" edge="1">
          <mxGeometry relative="1" as="geometry" />
        </mxCell>
        <mxCell id="28gl8YwfFNOOHwbT9DVS-53" value="int i=0" style="rounded=0;whiteSpace=wrap;html=1;" parent="WIyWlLk6GJQsqaUBKTNV-1" vertex="1">
          <mxGeometry x="480" y="480" width="120" height="60" as="geometry" />
        </mxCell>
        <mxCell id="28gl8YwfFNOOHwbT9DVS-56" value="" style="edgeStyle=orthogonalEdgeStyle;rounded=0;orthogonalLoop=1;jettySize=auto;html=1;" parent="WIyWlLk6GJQsqaUBKTNV-1" source="28gl8YwfFNOOHwbT9DVS-54" target="28gl8YwfFNOOHwbT9DVS-31" edge="1">
          <mxGeometry relative="1" as="geometry" />
        </mxCell>
        <mxCell id="28gl8YwfFNOOHwbT9DVS-58" value="true" style="edgeLabel;html=1;align=center;verticalAlign=middle;resizable=0;points=[];" parent="28gl8YwfFNOOHwbT9DVS-56" vertex="1" connectable="0">
          <mxGeometry x="0.2" y="1" relative="1" as="geometry">
            <mxPoint as="offset" />
          </mxGeometry>
        </mxCell>
        <mxCell id="28gl8YwfFNOOHwbT9DVS-62" value="" style="edgeStyle=orthogonalEdgeStyle;rounded=0;orthogonalLoop=1;jettySize=auto;html=1;" parent="WIyWlLk6GJQsqaUBKTNV-1" source="28gl8YwfFNOOHwbT9DVS-54" target="28gl8YwfFNOOHwbT9DVS-61" edge="1">
          <mxGeometry relative="1" as="geometry" />
        </mxCell>
        <mxCell id="28gl8YwfFNOOHwbT9DVS-63" value="false" style="edgeLabel;html=1;align=center;verticalAlign=middle;resizable=0;points=[];" parent="28gl8YwfFNOOHwbT9DVS-62" vertex="1" connectable="0">
          <mxGeometry x="-0.0952" y="1" relative="1" as="geometry">
            <mxPoint as="offset" />
          </mxGeometry>
        </mxCell>
        <mxCell id="28gl8YwfFNOOHwbT9DVS-54" value="i&amp;lt;n" style="rhombus;whiteSpace=wrap;html=1;" parent="WIyWlLk6GJQsqaUBKTNV-1" vertex="1">
          <mxGeometry x="640" y="470" width="80" height="80" as="geometry" />
        </mxCell>
        <mxCell id="28gl8YwfFNOOHwbT9DVS-61" value="end" style="ellipse;whiteSpace=wrap;html=1;" parent="WIyWlLk6GJQsqaUBKTNV-1" vertex="1">
          <mxGeometry x="620" y="592" width="120" height="80" as="geometry" />
        </mxCell>
        <mxCell id="28gl8YwfFNOOHwbT9DVS-66" value="" style="edgeStyle=orthogonalEdgeStyle;rounded=0;orthogonalLoop=1;jettySize=auto;html=1;" parent="WIyWlLk6GJQsqaUBKTNV-1" source="28gl8YwfFNOOHwbT9DVS-64" target="28gl8YwfFNOOHwbT9DVS-65" edge="1">
          <mxGeometry relative="1" as="geometry" />
        </mxCell>
        <mxCell id="28gl8YwfFNOOHwbT9DVS-64" value="start" style="ellipse;whiteSpace=wrap;html=1;" parent="WIyWlLk6GJQsqaUBKTNV-1" vertex="1">
          <mxGeometry x="230" y="760" width="120" height="80" as="geometry" />
        </mxCell>
        <mxCell id="28gl8YwfFNOOHwbT9DVS-68" value="" style="edgeStyle=orthogonalEdgeStyle;rounded=0;orthogonalLoop=1;jettySize=auto;html=1;" parent="WIyWlLk6GJQsqaUBKTNV-1" source="28gl8YwfFNOOHwbT9DVS-65" target="28gl8YwfFNOOHwbT9DVS-67" edge="1">
          <mxGeometry relative="1" as="geometry" />
        </mxCell>
        <mxCell id="28gl8YwfFNOOHwbT9DVS-65" value="&lt;div&gt;&amp;nbsp;int n,m;&lt;/div&gt;&lt;div&gt;&amp;nbsp; &amp;nbsp; int i,j,f=0;&lt;/div&gt;&lt;div&gt;&amp;nbsp; &amp;nbsp; int choice;&lt;/div&gt;&lt;div&gt;&amp;nbsp; &amp;nbsp; int a[100][100];&lt;/div&gt;" style="shape=label;whiteSpace=wrap;html=1;fixedSize=1;rounded=0;" parent="WIyWlLk6GJQsqaUBKTNV-1" vertex="1">
          <mxGeometry x="240" y="900" width="120" height="60" as="geometry" />
        </mxCell>
        <mxCell id="28gl8YwfFNOOHwbT9DVS-70" value="" style="edgeStyle=orthogonalEdgeStyle;rounded=0;orthogonalLoop=1;jettySize=auto;html=1;exitX=0.408;exitY=1.038;exitDx=0;exitDy=0;exitPerimeter=0;" parent="WIyWlLk6GJQsqaUBKTNV-1" source="28gl8YwfFNOOHwbT9DVS-67" target="28gl8YwfFNOOHwbT9DVS-69" edge="1">
          <mxGeometry relative="1" as="geometry">
            <Array as="points">
              <mxPoint x="320" y="1052" />
              <mxPoint x="320" y="1250" />
            </Array>
          </mxGeometry>
        </mxCell>
        <mxCell id="28gl8YwfFNOOHwbT9DVS-67" value="choice" style="shape=parallelogram;perimeter=parallelogramPerimeter;whiteSpace=wrap;html=1;fixedSize=1;" parent="WIyWlLk6GJQsqaUBKTNV-1" vertex="1">
          <mxGeometry x="240" y="990" width="120" height="60" as="geometry" />
        </mxCell>
        <mxCell id="28gl8YwfFNOOHwbT9DVS-72" value="" style="edgeStyle=orthogonalEdgeStyle;rounded=0;orthogonalLoop=1;jettySize=auto;html=1;" parent="WIyWlLk6GJQsqaUBKTNV-1" source="28gl8YwfFNOOHwbT9DVS-69" target="28gl8YwfFNOOHwbT9DVS-71" edge="1">
          <mxGeometry relative="1" as="geometry" />
        </mxCell>
        <mxCell id="28gl8YwfFNOOHwbT9DVS-73" value="true" style="edgeLabel;html=1;align=center;verticalAlign=middle;resizable=0;points=[];" parent="28gl8YwfFNOOHwbT9DVS-72" vertex="1" connectable="0">
          <mxGeometry x="-0.2" y="1" relative="1" as="geometry">
            <mxPoint as="offset" />
          </mxGeometry>
        </mxCell>
        <mxCell id="28gl8YwfFNOOHwbT9DVS-69" value="choice==1" style="rhombus;whiteSpace=wrap;html=1;" parent="WIyWlLk6GJQsqaUBKTNV-1" vertex="1">
          <mxGeometry x="450" y="1210" width="80" height="80" as="geometry" />
        </mxCell>
        <mxCell id="28gl8YwfFNOOHwbT9DVS-75" value="" style="edgeStyle=orthogonalEdgeStyle;rounded=0;orthogonalLoop=1;jettySize=auto;html=1;" parent="WIyWlLk6GJQsqaUBKTNV-1" source="28gl8YwfFNOOHwbT9DVS-71" target="28gl8YwfFNOOHwbT9DVS-74" edge="1">
          <mxGeometry relative="1" as="geometry" />
        </mxCell>
        <mxCell id="28gl8YwfFNOOHwbT9DVS-71" value="n,m" style="rounded=0;whiteSpace=wrap;html=1;shape=parallelogram;perimeter=parallelogramPerimeter;fixedSize=1;" parent="WIyWlLk6GJQsqaUBKTNV-1" vertex="1">
          <mxGeometry x="590" y="1220" width="120" height="60" as="geometry" />
        </mxCell>
        <mxCell id="28gl8YwfFNOOHwbT9DVS-77" value="" style="edgeStyle=orthogonalEdgeStyle;rounded=0;orthogonalLoop=1;jettySize=auto;html=1;" parent="WIyWlLk6GJQsqaUBKTNV-1" source="28gl8YwfFNOOHwbT9DVS-74" target="28gl8YwfFNOOHwbT9DVS-76" edge="1">
          <mxGeometry relative="1" as="geometry" />
        </mxCell>
        <mxCell id="28gl8YwfFNOOHwbT9DVS-74" value="i=1" style="rounded=0;whiteSpace=wrap;html=1;" parent="WIyWlLk6GJQsqaUBKTNV-1" vertex="1">
          <mxGeometry x="780" y="1220" width="120" height="60" as="geometry" />
        </mxCell>
        <mxCell id="28gl8YwfFNOOHwbT9DVS-79" value="" style="edgeStyle=orthogonalEdgeStyle;rounded=0;orthogonalLoop=1;jettySize=auto;html=1;" parent="WIyWlLk6GJQsqaUBKTNV-1" source="28gl8YwfFNOOHwbT9DVS-76" target="28gl8YwfFNOOHwbT9DVS-78" edge="1">
          <mxGeometry relative="1" as="geometry" />
        </mxCell>
        <mxCell id="28gl8YwfFNOOHwbT9DVS-80" value="true" style="edgeLabel;html=1;align=center;verticalAlign=middle;resizable=0;points=[];" parent="28gl8YwfFNOOHwbT9DVS-79" vertex="1" connectable="0">
          <mxGeometry x="-0.3" relative="1" as="geometry">
            <mxPoint y="1" as="offset" />
          </mxGeometry>
        </mxCell>
        <mxCell id="28gl8YwfFNOOHwbT9DVS-107" style="edgeStyle=orthogonalEdgeStyle;rounded=0;orthogonalLoop=1;jettySize=auto;html=1;entryX=1;entryY=0.5;entryDx=0;entryDy=0;" parent="WIyWlLk6GJQsqaUBKTNV-1" source="28gl8YwfFNOOHwbT9DVS-76" target="28gl8YwfFNOOHwbT9DVS-67" edge="1">
          <mxGeometry relative="1" as="geometry">
            <Array as="points">
              <mxPoint x="970" y="1400" />
              <mxPoint x="2110" y="1400" />
              <mxPoint x="2110" y="1020" />
            </Array>
          </mxGeometry>
        </mxCell>
        <mxCell id="28gl8YwfFNOOHwbT9DVS-76" value="i&amp;lt;n" style="rhombus;whiteSpace=wrap;html=1;" parent="WIyWlLk6GJQsqaUBKTNV-1" vertex="1">
          <mxGeometry x="930" y="1210" width="80" height="80" as="geometry" />
        </mxCell>
        <mxCell id="28gl8YwfFNOOHwbT9DVS-82" value="" style="edgeStyle=orthogonalEdgeStyle;rounded=0;orthogonalLoop=1;jettySize=auto;html=1;" parent="WIyWlLk6GJQsqaUBKTNV-1" source="28gl8YwfFNOOHwbT9DVS-78" target="28gl8YwfFNOOHwbT9DVS-81" edge="1">
          <mxGeometry relative="1" as="geometry" />
        </mxCell>
        <mxCell id="28gl8YwfFNOOHwbT9DVS-78" value="j=0" style="rounded=0;whiteSpace=wrap;html=1;" parent="WIyWlLk6GJQsqaUBKTNV-1" vertex="1">
          <mxGeometry x="1060" y="1220" width="120" height="60" as="geometry" />
        </mxCell>
        <mxCell id="28gl8YwfFNOOHwbT9DVS-84" value="" style="edgeStyle=orthogonalEdgeStyle;rounded=0;orthogonalLoop=1;jettySize=auto;html=1;" parent="WIyWlLk6GJQsqaUBKTNV-1" source="28gl8YwfFNOOHwbT9DVS-81" target="28gl8YwfFNOOHwbT9DVS-83" edge="1">
          <mxGeometry relative="1" as="geometry" />
        </mxCell>
        <mxCell id="28gl8YwfFNOOHwbT9DVS-130" value="true" style="edgeLabel;html=1;align=center;verticalAlign=middle;resizable=0;points=[];" parent="28gl8YwfFNOOHwbT9DVS-84" vertex="1" connectable="0">
          <mxGeometry x="0.1186" y="3" relative="1" as="geometry">
            <mxPoint x="1" as="offset" />
          </mxGeometry>
        </mxCell>
        <mxCell id="28gl8YwfFNOOHwbT9DVS-86" style="edgeStyle=orthogonalEdgeStyle;rounded=0;orthogonalLoop=1;jettySize=auto;html=1;entryX=1;entryY=0.5;entryDx=0;entryDy=0;" parent="WIyWlLk6GJQsqaUBKTNV-1" source="28gl8YwfFNOOHwbT9DVS-81" target="28gl8YwfFNOOHwbT9DVS-87" edge="1">
          <mxGeometry relative="1" as="geometry">
            <mxPoint x="1160" y="1140" as="targetPoint" />
            <Array as="points">
              <mxPoint x="1281" y="1130" />
            </Array>
          </mxGeometry>
        </mxCell>
        <mxCell id="28gl8YwfFNOOHwbT9DVS-128" value="fa" style="edgeLabel;html=1;align=center;verticalAlign=middle;resizable=0;points=[];" parent="28gl8YwfFNOOHwbT9DVS-86" vertex="1" connectable="0">
          <mxGeometry x="-0.5867" y="5" relative="1" as="geometry">
            <mxPoint y="1" as="offset" />
          </mxGeometry>
        </mxCell>
        <mxCell id="28gl8YwfFNOOHwbT9DVS-129" value="false" style="edgeLabel;html=1;align=center;verticalAlign=middle;resizable=0;points=[];" parent="28gl8YwfFNOOHwbT9DVS-86" vertex="1" connectable="0">
          <mxGeometry x="-0.5249" y="1" relative="1" as="geometry">
            <mxPoint y="-1" as="offset" />
          </mxGeometry>
        </mxCell>
        <mxCell id="28gl8YwfFNOOHwbT9DVS-81" value="j&amp;lt;m" style="rhombus;whiteSpace=wrap;html=1;" parent="WIyWlLk6GJQsqaUBKTNV-1" vertex="1">
          <mxGeometry x="1241" y="1210" width="80" height="80" as="geometry" />
        </mxCell>
        <mxCell id="28gl8YwfFNOOHwbT9DVS-85" style="edgeStyle=orthogonalEdgeStyle;rounded=0;orthogonalLoop=1;jettySize=auto;html=1;" parent="WIyWlLk6GJQsqaUBKTNV-1" source="28gl8YwfFNOOHwbT9DVS-83" edge="1">
          <mxGeometry relative="1" as="geometry">
            <mxPoint x="1200" y="1250" as="targetPoint" />
            <Array as="points">
              <mxPoint x="1440" y="1360" />
              <mxPoint x="1200" y="1360" />
            </Array>
          </mxGeometry>
        </mxCell>
        <mxCell id="28gl8YwfFNOOHwbT9DVS-83" value="numbers[i][j]&lt;br&gt;j++" style="rounded=0;whiteSpace=wrap;html=1;" parent="WIyWlLk6GJQsqaUBKTNV-1" vertex="1">
          <mxGeometry x="1380" y="1220" width="120" height="60" as="geometry" />
        </mxCell>
        <mxCell id="28gl8YwfFNOOHwbT9DVS-88" style="edgeStyle=orthogonalEdgeStyle;rounded=0;orthogonalLoop=1;jettySize=auto;html=1;" parent="WIyWlLk6GJQsqaUBKTNV-1" source="28gl8YwfFNOOHwbT9DVS-87" edge="1">
          <mxGeometry relative="1" as="geometry">
            <mxPoint x="920" y="1250" as="targetPoint" />
          </mxGeometry>
        </mxCell>
        <mxCell id="28gl8YwfFNOOHwbT9DVS-87" value="i++" style="rounded=0;whiteSpace=wrap;html=1;" parent="WIyWlLk6GJQsqaUBKTNV-1" vertex="1">
          <mxGeometry x="1060" y="1100" width="120" height="60" as="geometry" />
        </mxCell>
        <mxCell id="28gl8YwfFNOOHwbT9DVS-106" value="" style="edgeStyle=orthogonalEdgeStyle;rounded=0;orthogonalLoop=1;jettySize=auto;html=1;" parent="WIyWlLk6GJQsqaUBKTNV-1" source="28gl8YwfFNOOHwbT9DVS-89" target="28gl8YwfFNOOHwbT9DVS-93" edge="1">
          <mxGeometry relative="1" as="geometry" />
        </mxCell>
        <mxCell id="28gl8YwfFNOOHwbT9DVS-125" value="trua" style="edgeLabel;html=1;align=center;verticalAlign=middle;resizable=0;points=[];" parent="28gl8YwfFNOOHwbT9DVS-106" vertex="1" connectable="0">
          <mxGeometry x="-0.2889" y="2" relative="1" as="geometry">
            <mxPoint as="offset" />
          </mxGeometry>
        </mxCell>
        <mxCell id="28gl8YwfFNOOHwbT9DVS-110" style="edgeStyle=orthogonalEdgeStyle;rounded=0;orthogonalLoop=1;jettySize=auto;html=1;" parent="WIyWlLk6GJQsqaUBKTNV-1" source="28gl8YwfFNOOHwbT9DVS-89" target="28gl8YwfFNOOHwbT9DVS-109" edge="1">
          <mxGeometry relative="1" as="geometry" />
        </mxCell>
        <mxCell id="28gl8YwfFNOOHwbT9DVS-276" value="faalse" style="edgeLabel;html=1;align=center;verticalAlign=middle;resizable=0;points=[];" parent="28gl8YwfFNOOHwbT9DVS-110" vertex="1" connectable="0">
          <mxGeometry x="0.0583" y="-2" relative="1" as="geometry">
            <mxPoint y="1" as="offset" />
          </mxGeometry>
        </mxCell>
        <mxCell id="28gl8YwfFNOOHwbT9DVS-89" value="choice==2" style="rhombus;whiteSpace=wrap;html=1;" parent="WIyWlLk6GJQsqaUBKTNV-1" vertex="1">
          <mxGeometry x="450" y="1560" width="80" height="80" as="geometry" />
        </mxCell>
        <mxCell id="28gl8YwfFNOOHwbT9DVS-90" style="edgeStyle=orthogonalEdgeStyle;rounded=0;orthogonalLoop=1;jettySize=auto;html=1;entryX=0.469;entryY=0.096;entryDx=0;entryDy=0;entryPerimeter=0;" parent="WIyWlLk6GJQsqaUBKTNV-1" source="28gl8YwfFNOOHwbT9DVS-69" target="28gl8YwfFNOOHwbT9DVS-89" edge="1">
          <mxGeometry relative="1" as="geometry" />
        </mxCell>
        <mxCell id="28gl8YwfFNOOHwbT9DVS-91" value="false" style="edgeLabel;html=1;align=center;verticalAlign=middle;resizable=0;points=[];" parent="28gl8YwfFNOOHwbT9DVS-90" vertex="1" connectable="0">
          <mxGeometry x="-0.122" y="-3" relative="1" as="geometry">
            <mxPoint as="offset" />
          </mxGeometry>
        </mxCell>
        <mxCell id="28gl8YwfFNOOHwbT9DVS-92" value="" style="edgeStyle=orthogonalEdgeStyle;rounded=0;orthogonalLoop=1;jettySize=auto;html=1;" parent="WIyWlLk6GJQsqaUBKTNV-1" source="28gl8YwfFNOOHwbT9DVS-93" target="28gl8YwfFNOOHwbT9DVS-96" edge="1">
          <mxGeometry relative="1" as="geometry" />
        </mxCell>
        <mxCell id="28gl8YwfFNOOHwbT9DVS-93" value="i=1" style="rounded=0;whiteSpace=wrap;html=1;" parent="WIyWlLk6GJQsqaUBKTNV-1" vertex="1">
          <mxGeometry x="575" y="1570" width="120" height="60" as="geometry" />
        </mxCell>
        <mxCell id="28gl8YwfFNOOHwbT9DVS-94" value="" style="edgeStyle=orthogonalEdgeStyle;rounded=0;orthogonalLoop=1;jettySize=auto;html=1;" parent="WIyWlLk6GJQsqaUBKTNV-1" source="28gl8YwfFNOOHwbT9DVS-96" target="28gl8YwfFNOOHwbT9DVS-98" edge="1">
          <mxGeometry relative="1" as="geometry" />
        </mxCell>
        <mxCell id="28gl8YwfFNOOHwbT9DVS-95" value="true" style="edgeLabel;html=1;align=center;verticalAlign=middle;resizable=0;points=[];" parent="28gl8YwfFNOOHwbT9DVS-94" vertex="1" connectable="0">
          <mxGeometry x="-0.3" relative="1" as="geometry">
            <mxPoint y="1" as="offset" />
          </mxGeometry>
        </mxCell>
        <mxCell id="28gl8YwfFNOOHwbT9DVS-108" style="edgeStyle=orthogonalEdgeStyle;rounded=0;orthogonalLoop=1;jettySize=auto;html=1;entryX=1;entryY=0.5;entryDx=0;entryDy=0;" parent="WIyWlLk6GJQsqaUBKTNV-1" source="28gl8YwfFNOOHwbT9DVS-96" target="28gl8YwfFNOOHwbT9DVS-67" edge="1">
          <mxGeometry relative="1" as="geometry">
            <Array as="points">
              <mxPoint x="765" y="1730" />
              <mxPoint x="2110" y="1730" />
              <mxPoint x="2110" y="1020" />
            </Array>
          </mxGeometry>
        </mxCell>
        <mxCell id="28gl8YwfFNOOHwbT9DVS-96" value="i&amp;lt;n" style="rhombus;whiteSpace=wrap;html=1;" parent="WIyWlLk6GJQsqaUBKTNV-1" vertex="1">
          <mxGeometry x="725" y="1560" width="80" height="80" as="geometry" />
        </mxCell>
        <mxCell id="28gl8YwfFNOOHwbT9DVS-97" value="" style="edgeStyle=orthogonalEdgeStyle;rounded=0;orthogonalLoop=1;jettySize=auto;html=1;" parent="WIyWlLk6GJQsqaUBKTNV-1" source="28gl8YwfFNOOHwbT9DVS-98" target="28gl8YwfFNOOHwbT9DVS-101" edge="1">
          <mxGeometry relative="1" as="geometry" />
        </mxCell>
        <mxCell id="28gl8YwfFNOOHwbT9DVS-98" value="j=0" style="rounded=0;whiteSpace=wrap;html=1;" parent="WIyWlLk6GJQsqaUBKTNV-1" vertex="1">
          <mxGeometry x="855" y="1570" width="120" height="60" as="geometry" />
        </mxCell>
        <mxCell id="28gl8YwfFNOOHwbT9DVS-99" value="" style="edgeStyle=orthogonalEdgeStyle;rounded=0;orthogonalLoop=1;jettySize=auto;html=1;" parent="WIyWlLk6GJQsqaUBKTNV-1" source="28gl8YwfFNOOHwbT9DVS-101" target="28gl8YwfFNOOHwbT9DVS-103" edge="1">
          <mxGeometry relative="1" as="geometry" />
        </mxCell>
        <mxCell id="28gl8YwfFNOOHwbT9DVS-132" value="true" style="edgeLabel;html=1;align=center;verticalAlign=middle;resizable=0;points=[];" parent="28gl8YwfFNOOHwbT9DVS-99" vertex="1" connectable="0">
          <mxGeometry x="-0.3043" y="1" relative="1" as="geometry">
            <mxPoint as="offset" />
          </mxGeometry>
        </mxCell>
        <mxCell id="28gl8YwfFNOOHwbT9DVS-100" style="edgeStyle=orthogonalEdgeStyle;rounded=0;orthogonalLoop=1;jettySize=auto;html=1;entryX=1;entryY=0.5;entryDx=0;entryDy=0;" parent="WIyWlLk6GJQsqaUBKTNV-1" source="28gl8YwfFNOOHwbT9DVS-101" target="28gl8YwfFNOOHwbT9DVS-105" edge="1">
          <mxGeometry relative="1" as="geometry">
            <mxPoint x="955" y="1490" as="targetPoint" />
            <Array as="points">
              <mxPoint x="1076" y="1480" />
            </Array>
          </mxGeometry>
        </mxCell>
        <mxCell id="28gl8YwfFNOOHwbT9DVS-131" value="false" style="edgeLabel;html=1;align=center;verticalAlign=middle;resizable=0;points=[];" parent="28gl8YwfFNOOHwbT9DVS-100" vertex="1" connectable="0">
          <mxGeometry x="-0.1934" y="4" relative="1" as="geometry">
            <mxPoint y="-1" as="offset" />
          </mxGeometry>
        </mxCell>
        <mxCell id="28gl8YwfFNOOHwbT9DVS-101" value="j&amp;lt;m" style="rhombus;whiteSpace=wrap;html=1;" parent="WIyWlLk6GJQsqaUBKTNV-1" vertex="1">
          <mxGeometry x="1036" y="1560" width="80" height="80" as="geometry" />
        </mxCell>
        <mxCell id="28gl8YwfFNOOHwbT9DVS-102" style="edgeStyle=orthogonalEdgeStyle;rounded=0;orthogonalLoop=1;jettySize=auto;html=1;" parent="WIyWlLk6GJQsqaUBKTNV-1" source="28gl8YwfFNOOHwbT9DVS-103" edge="1">
          <mxGeometry relative="1" as="geometry">
            <mxPoint x="995" y="1600" as="targetPoint" />
            <Array as="points">
              <mxPoint x="1235" y="1710" />
              <mxPoint x="995" y="1710" />
            </Array>
          </mxGeometry>
        </mxCell>
        <mxCell id="28gl8YwfFNOOHwbT9DVS-103" value="numbers[i][j]&lt;br&gt;j++" style="rounded=0;whiteSpace=wrap;html=1;shape=parallelogram;perimeter=parallelogramPerimeter;fixedSize=1;" parent="WIyWlLk6GJQsqaUBKTNV-1" vertex="1">
          <mxGeometry x="1175" y="1570" width="120" height="60" as="geometry" />
        </mxCell>
        <mxCell id="28gl8YwfFNOOHwbT9DVS-104" style="edgeStyle=orthogonalEdgeStyle;rounded=0;orthogonalLoop=1;jettySize=auto;html=1;" parent="WIyWlLk6GJQsqaUBKTNV-1" source="28gl8YwfFNOOHwbT9DVS-105" edge="1">
          <mxGeometry relative="1" as="geometry">
            <mxPoint x="715" y="1600" as="targetPoint" />
          </mxGeometry>
        </mxCell>
        <mxCell id="28gl8YwfFNOOHwbT9DVS-105" value="i++" style="rounded=0;whiteSpace=wrap;html=1;" parent="WIyWlLk6GJQsqaUBKTNV-1" vertex="1">
          <mxGeometry x="855" y="1450" width="120" height="60" as="geometry" />
        </mxCell>
        <mxCell id="28gl8YwfFNOOHwbT9DVS-126" value="" style="edgeStyle=orthogonalEdgeStyle;rounded=0;orthogonalLoop=1;jettySize=auto;html=1;" parent="WIyWlLk6GJQsqaUBKTNV-1" source="28gl8YwfFNOOHwbT9DVS-109" target="28gl8YwfFNOOHwbT9DVS-112" edge="1">
          <mxGeometry relative="1" as="geometry" />
        </mxCell>
        <mxCell id="28gl8YwfFNOOHwbT9DVS-127" value="true" style="edgeLabel;html=1;align=center;verticalAlign=middle;resizable=0;points=[];" parent="28gl8YwfFNOOHwbT9DVS-126" vertex="1" connectable="0">
          <mxGeometry x="-0.3714" y="2" relative="1" as="geometry">
            <mxPoint as="offset" />
          </mxGeometry>
        </mxCell>
        <mxCell id="28gl8YwfFNOOHwbT9DVS-146" style="edgeStyle=orthogonalEdgeStyle;rounded=0;orthogonalLoop=1;jettySize=auto;html=1;entryX=0.5;entryY=0;entryDx=0;entryDy=0;" parent="WIyWlLk6GJQsqaUBKTNV-1" source="28gl8YwfFNOOHwbT9DVS-109" target="28gl8YwfFNOOHwbT9DVS-145" edge="1">
          <mxGeometry relative="1" as="geometry" />
        </mxCell>
        <mxCell id="28gl8YwfFNOOHwbT9DVS-277" value="false" style="edgeLabel;html=1;align=center;verticalAlign=middle;resizable=0;points=[];" parent="28gl8YwfFNOOHwbT9DVS-146" vertex="1" connectable="0">
          <mxGeometry x="-0.084" y="4" relative="1" as="geometry">
            <mxPoint y="-1" as="offset" />
          </mxGeometry>
        </mxCell>
        <mxCell id="28gl8YwfFNOOHwbT9DVS-109" value="choice==3" style="rhombus;whiteSpace=wrap;html=1;" parent="WIyWlLk6GJQsqaUBKTNV-1" vertex="1">
          <mxGeometry x="450" y="1880" width="80" height="80" as="geometry" />
        </mxCell>
        <mxCell id="28gl8YwfFNOOHwbT9DVS-111" value="" style="edgeStyle=orthogonalEdgeStyle;rounded=0;orthogonalLoop=1;jettySize=auto;html=1;" parent="WIyWlLk6GJQsqaUBKTNV-1" source="28gl8YwfFNOOHwbT9DVS-112" target="28gl8YwfFNOOHwbT9DVS-115" edge="1">
          <mxGeometry relative="1" as="geometry" />
        </mxCell>
        <mxCell id="28gl8YwfFNOOHwbT9DVS-112" value="i=1" style="rounded=0;whiteSpace=wrap;html=1;" parent="WIyWlLk6GJQsqaUBKTNV-1" vertex="1">
          <mxGeometry x="590" y="1880" width="120" height="60" as="geometry" />
        </mxCell>
        <mxCell id="28gl8YwfFNOOHwbT9DVS-113" value="" style="edgeStyle=orthogonalEdgeStyle;rounded=0;orthogonalLoop=1;jettySize=auto;html=1;" parent="WIyWlLk6GJQsqaUBKTNV-1" source="28gl8YwfFNOOHwbT9DVS-115" target="28gl8YwfFNOOHwbT9DVS-117" edge="1">
          <mxGeometry relative="1" as="geometry" />
        </mxCell>
        <mxCell id="28gl8YwfFNOOHwbT9DVS-114" value="true" style="edgeLabel;html=1;align=center;verticalAlign=middle;resizable=0;points=[];" parent="28gl8YwfFNOOHwbT9DVS-113" vertex="1" connectable="0">
          <mxGeometry x="-0.3" relative="1" as="geometry">
            <mxPoint y="1" as="offset" />
          </mxGeometry>
        </mxCell>
        <mxCell id="28gl8YwfFNOOHwbT9DVS-144" style="edgeStyle=orthogonalEdgeStyle;rounded=0;orthogonalLoop=1;jettySize=auto;html=1;exitX=0.5;exitY=1;exitDx=0;exitDy=0;" parent="WIyWlLk6GJQsqaUBKTNV-1" source="28gl8YwfFNOOHwbT9DVS-115" edge="1">
          <mxGeometry relative="1" as="geometry">
            <mxPoint x="820" y="2170" as="sourcePoint" />
            <mxPoint x="360" y="1030" as="targetPoint" />
            <Array as="points">
              <mxPoint x="780" y="2170" />
              <mxPoint x="2110" y="2170" />
              <mxPoint x="2110" y="1020" />
              <mxPoint x="350" y="1020" />
            </Array>
          </mxGeometry>
        </mxCell>
        <mxCell id="28gl8YwfFNOOHwbT9DVS-115" value="i&amp;lt;n" style="rhombus;whiteSpace=wrap;html=1;" parent="WIyWlLk6GJQsqaUBKTNV-1" vertex="1">
          <mxGeometry x="740" y="1870" width="80" height="80" as="geometry" />
        </mxCell>
        <mxCell id="28gl8YwfFNOOHwbT9DVS-116" value="" style="edgeStyle=orthogonalEdgeStyle;rounded=0;orthogonalLoop=1;jettySize=auto;html=1;" parent="WIyWlLk6GJQsqaUBKTNV-1" source="28gl8YwfFNOOHwbT9DVS-117" target="28gl8YwfFNOOHwbT9DVS-120" edge="1">
          <mxGeometry relative="1" as="geometry" />
        </mxCell>
        <mxCell id="28gl8YwfFNOOHwbT9DVS-117" value="j=0" style="rounded=0;whiteSpace=wrap;html=1;" parent="WIyWlLk6GJQsqaUBKTNV-1" vertex="1">
          <mxGeometry x="870" y="1880" width="120" height="60" as="geometry" />
        </mxCell>
        <mxCell id="28gl8YwfFNOOHwbT9DVS-119" style="edgeStyle=orthogonalEdgeStyle;rounded=0;orthogonalLoop=1;jettySize=auto;html=1;entryX=1;entryY=0.5;entryDx=0;entryDy=0;" parent="WIyWlLk6GJQsqaUBKTNV-1" source="28gl8YwfFNOOHwbT9DVS-120" target="28gl8YwfFNOOHwbT9DVS-124" edge="1">
          <mxGeometry relative="1" as="geometry">
            <mxPoint x="970" y="1800" as="targetPoint" />
            <Array as="points">
              <mxPoint x="1091" y="1790" />
            </Array>
          </mxGeometry>
        </mxCell>
        <mxCell id="28gl8YwfFNOOHwbT9DVS-134" value="" style="edgeStyle=orthogonalEdgeStyle;rounded=0;orthogonalLoop=1;jettySize=auto;html=1;" parent="WIyWlLk6GJQsqaUBKTNV-1" source="28gl8YwfFNOOHwbT9DVS-120" target="28gl8YwfFNOOHwbT9DVS-133" edge="1">
          <mxGeometry relative="1" as="geometry" />
        </mxCell>
        <mxCell id="28gl8YwfFNOOHwbT9DVS-136" value="true" style="edgeLabel;html=1;align=center;verticalAlign=middle;resizable=0;points=[];" parent="28gl8YwfFNOOHwbT9DVS-134" vertex="1" connectable="0">
          <mxGeometry x="0.1392" y="-3" relative="1" as="geometry">
            <mxPoint x="1" as="offset" />
          </mxGeometry>
        </mxCell>
        <mxCell id="28gl8YwfFNOOHwbT9DVS-120" value="j&amp;lt;m" style="rhombus;whiteSpace=wrap;html=1;" parent="WIyWlLk6GJQsqaUBKTNV-1" vertex="1">
          <mxGeometry x="1051" y="1870" width="80" height="80" as="geometry" />
        </mxCell>
        <mxCell id="28gl8YwfFNOOHwbT9DVS-121" style="edgeStyle=orthogonalEdgeStyle;rounded=0;orthogonalLoop=1;jettySize=auto;html=1;" parent="WIyWlLk6GJQsqaUBKTNV-1" source="28gl8YwfFNOOHwbT9DVS-122" edge="1">
          <mxGeometry relative="1" as="geometry">
            <mxPoint x="1010" y="1910" as="targetPoint" />
            <Array as="points">
              <mxPoint x="1450" y="2020" />
              <mxPoint x="1010" y="2020" />
            </Array>
          </mxGeometry>
        </mxCell>
        <mxCell id="28gl8YwfFNOOHwbT9DVS-122" value="numbers[i][j]&lt;br&gt;j++" style="rounded=0;whiteSpace=wrap;html=1;" parent="WIyWlLk6GJQsqaUBKTNV-1" vertex="1">
          <mxGeometry x="1400" y="1880" width="120" height="60" as="geometry" />
        </mxCell>
        <mxCell id="28gl8YwfFNOOHwbT9DVS-123" style="edgeStyle=orthogonalEdgeStyle;rounded=0;orthogonalLoop=1;jettySize=auto;html=1;" parent="WIyWlLk6GJQsqaUBKTNV-1" source="28gl8YwfFNOOHwbT9DVS-124" edge="1">
          <mxGeometry relative="1" as="geometry">
            <mxPoint x="730" y="1910" as="targetPoint" />
          </mxGeometry>
        </mxCell>
        <mxCell id="28gl8YwfFNOOHwbT9DVS-124" value="i++" style="rounded=0;whiteSpace=wrap;html=1;" parent="WIyWlLk6GJQsqaUBKTNV-1" vertex="1">
          <mxGeometry x="860" y="1760" width="120" height="60" as="geometry" />
        </mxCell>
        <mxCell id="28gl8YwfFNOOHwbT9DVS-135" value="" style="edgeStyle=orthogonalEdgeStyle;rounded=0;orthogonalLoop=1;jettySize=auto;html=1;" parent="WIyWlLk6GJQsqaUBKTNV-1" source="28gl8YwfFNOOHwbT9DVS-133" target="28gl8YwfFNOOHwbT9DVS-122" edge="1">
          <mxGeometry relative="1" as="geometry" />
        </mxCell>
        <mxCell id="28gl8YwfFNOOHwbT9DVS-137" value="true" style="edgeLabel;html=1;align=center;verticalAlign=middle;resizable=0;points=[];" parent="28gl8YwfFNOOHwbT9DVS-135" vertex="1" connectable="0">
          <mxGeometry x="0.0909" y="1" relative="1" as="geometry">
            <mxPoint as="offset" />
          </mxGeometry>
        </mxCell>
        <mxCell id="28gl8YwfFNOOHwbT9DVS-139" value="" style="edgeStyle=orthogonalEdgeStyle;rounded=0;orthogonalLoop=1;jettySize=auto;html=1;" parent="WIyWlLk6GJQsqaUBKTNV-1" source="28gl8YwfFNOOHwbT9DVS-133" target="28gl8YwfFNOOHwbT9DVS-138" edge="1">
          <mxGeometry relative="1" as="geometry" />
        </mxCell>
        <mxCell id="28gl8YwfFNOOHwbT9DVS-140" value="false" style="edgeLabel;html=1;align=center;verticalAlign=middle;resizable=0;points=[];" parent="28gl8YwfFNOOHwbT9DVS-139" vertex="1" connectable="0">
          <mxGeometry x="0.15" y="4" relative="1" as="geometry">
            <mxPoint y="-1" as="offset" />
          </mxGeometry>
        </mxCell>
        <mxCell id="28gl8YwfFNOOHwbT9DVS-133" value="i==0&amp;amp;&amp;amp;j==0||i==n-1&amp;amp;&amp;amp;j==0||i==n-1&amp;amp;&amp;amp;j==m-1||i==0&amp;amp;&amp;amp;j==m-1" style="rhombus;whiteSpace=wrap;html=1;" parent="WIyWlLk6GJQsqaUBKTNV-1" vertex="1">
          <mxGeometry x="1190" y="1800" width="160" height="150" as="geometry" />
        </mxCell>
        <mxCell id="28gl8YwfFNOOHwbT9DVS-141" style="edgeStyle=orthogonalEdgeStyle;rounded=0;orthogonalLoop=1;jettySize=auto;html=1;" parent="WIyWlLk6GJQsqaUBKTNV-1" source="28gl8YwfFNOOHwbT9DVS-138" edge="1">
          <mxGeometry relative="1" as="geometry">
            <mxPoint x="1010" y="1920" as="targetPoint" />
          </mxGeometry>
        </mxCell>
        <mxCell id="28gl8YwfFNOOHwbT9DVS-138" value="f=0&lt;br&gt;j++" style="rounded=0;whiteSpace=wrap;html=1;" parent="WIyWlLk6GJQsqaUBKTNV-1" vertex="1">
          <mxGeometry x="1190" y="2050" width="120" height="60" as="geometry" />
        </mxCell>
        <mxCell id="28gl8YwfFNOOHwbT9DVS-224" style="edgeStyle=orthogonalEdgeStyle;rounded=0;orthogonalLoop=1;jettySize=auto;html=1;entryX=0.5;entryY=0;entryDx=0;entryDy=0;" parent="WIyWlLk6GJQsqaUBKTNV-1" source="28gl8YwfFNOOHwbT9DVS-145" target="28gl8YwfFNOOHwbT9DVS-221" edge="1">
          <mxGeometry relative="1" as="geometry" />
        </mxCell>
        <mxCell id="28gl8YwfFNOOHwbT9DVS-278" value="false" style="edgeLabel;html=1;align=center;verticalAlign=middle;resizable=0;points=[];" parent="28gl8YwfFNOOHwbT9DVS-224" vertex="1" connectable="0">
          <mxGeometry x="-0.0727" y="-6" relative="1" as="geometry">
            <mxPoint y="-1" as="offset" />
          </mxGeometry>
        </mxCell>
        <mxCell id="28gl8YwfFNOOHwbT9DVS-145" value="choice==4" style="rhombus;whiteSpace=wrap;html=1;" parent="WIyWlLk6GJQsqaUBKTNV-1" vertex="1">
          <mxGeometry x="450" y="2460" width="80" height="80" as="geometry" />
        </mxCell>
        <mxCell id="28gl8YwfFNOOHwbT9DVS-195" value="" style="edgeStyle=orthogonalEdgeStyle;rounded=0;orthogonalLoop=1;jettySize=auto;html=1;exitX=1;exitY=0.5;exitDx=0;exitDy=0;" parent="WIyWlLk6GJQsqaUBKTNV-1" source="28gl8YwfFNOOHwbT9DVS-145" target="28gl8YwfFNOOHwbT9DVS-198" edge="1">
          <mxGeometry relative="1" as="geometry">
            <mxPoint x="590" y="2480" as="sourcePoint" />
          </mxGeometry>
        </mxCell>
        <mxCell id="28gl8YwfFNOOHwbT9DVS-196" value="true" style="edgeLabel;html=1;align=center;verticalAlign=middle;resizable=0;points=[];" parent="28gl8YwfFNOOHwbT9DVS-195" vertex="1" connectable="0">
          <mxGeometry x="-0.3714" y="2" relative="1" as="geometry">
            <mxPoint as="offset" />
          </mxGeometry>
        </mxCell>
        <mxCell id="28gl8YwfFNOOHwbT9DVS-197" value="" style="edgeStyle=orthogonalEdgeStyle;rounded=0;orthogonalLoop=1;jettySize=auto;html=1;" parent="WIyWlLk6GJQsqaUBKTNV-1" source="28gl8YwfFNOOHwbT9DVS-198" target="28gl8YwfFNOOHwbT9DVS-201" edge="1">
          <mxGeometry relative="1" as="geometry" />
        </mxCell>
        <mxCell id="28gl8YwfFNOOHwbT9DVS-198" value="i=1" style="rounded=0;whiteSpace=wrap;html=1;" parent="WIyWlLk6GJQsqaUBKTNV-1" vertex="1">
          <mxGeometry x="650" y="2470" width="120" height="60" as="geometry" />
        </mxCell>
        <mxCell id="28gl8YwfFNOOHwbT9DVS-199" value="" style="edgeStyle=orthogonalEdgeStyle;rounded=0;orthogonalLoop=1;jettySize=auto;html=1;" parent="WIyWlLk6GJQsqaUBKTNV-1" source="28gl8YwfFNOOHwbT9DVS-201" target="28gl8YwfFNOOHwbT9DVS-203" edge="1">
          <mxGeometry relative="1" as="geometry" />
        </mxCell>
        <mxCell id="28gl8YwfFNOOHwbT9DVS-200" value="true" style="edgeLabel;html=1;align=center;verticalAlign=middle;resizable=0;points=[];" parent="28gl8YwfFNOOHwbT9DVS-199" vertex="1" connectable="0">
          <mxGeometry x="-0.3" relative="1" as="geometry">
            <mxPoint y="1" as="offset" />
          </mxGeometry>
        </mxCell>
        <mxCell id="28gl8YwfFNOOHwbT9DVS-219" style="edgeStyle=orthogonalEdgeStyle;rounded=0;orthogonalLoop=1;jettySize=auto;html=1;entryX=1;entryY=0.5;entryDx=0;entryDy=0;exitX=0.5;exitY=1;exitDx=0;exitDy=0;" parent="WIyWlLk6GJQsqaUBKTNV-1" source="28gl8YwfFNOOHwbT9DVS-201" target="28gl8YwfFNOOHwbT9DVS-67" edge="1">
          <mxGeometry relative="1" as="geometry">
            <mxPoint x="870" y="2740" as="sourcePoint" />
            <mxPoint x="340" y="1290" as="targetPoint" />
            <Array as="points">
              <mxPoint x="840" y="2740" />
              <mxPoint x="2110" y="2740" />
              <mxPoint x="2110" y="1020" />
            </Array>
          </mxGeometry>
        </mxCell>
        <mxCell id="28gl8YwfFNOOHwbT9DVS-201" value="i&amp;lt;n" style="rhombus;whiteSpace=wrap;html=1;" parent="WIyWlLk6GJQsqaUBKTNV-1" vertex="1">
          <mxGeometry x="800" y="2430" width="80" height="80" as="geometry" />
        </mxCell>
        <mxCell id="28gl8YwfFNOOHwbT9DVS-202" value="" style="edgeStyle=orthogonalEdgeStyle;rounded=0;orthogonalLoop=1;jettySize=auto;html=1;" parent="WIyWlLk6GJQsqaUBKTNV-1" source="28gl8YwfFNOOHwbT9DVS-203" target="28gl8YwfFNOOHwbT9DVS-207" edge="1">
          <mxGeometry relative="1" as="geometry" />
        </mxCell>
        <mxCell id="28gl8YwfFNOOHwbT9DVS-203" value="j=0" style="rounded=0;whiteSpace=wrap;html=1;" parent="WIyWlLk6GJQsqaUBKTNV-1" vertex="1">
          <mxGeometry x="930" y="2440" width="120" height="60" as="geometry" />
        </mxCell>
        <mxCell id="28gl8YwfFNOOHwbT9DVS-204" style="edgeStyle=orthogonalEdgeStyle;rounded=0;orthogonalLoop=1;jettySize=auto;html=1;entryX=1;entryY=0.5;entryDx=0;entryDy=0;" parent="WIyWlLk6GJQsqaUBKTNV-1" source="28gl8YwfFNOOHwbT9DVS-207" edge="1">
          <mxGeometry relative="1" as="geometry">
            <mxPoint x="1050" y="2350" as="targetPoint" />
            <Array as="points">
              <mxPoint x="1151" y="2350" />
            </Array>
          </mxGeometry>
        </mxCell>
        <mxCell id="28gl8YwfFNOOHwbT9DVS-205" value="" style="edgeStyle=orthogonalEdgeStyle;rounded=0;orthogonalLoop=1;jettySize=auto;html=1;" parent="WIyWlLk6GJQsqaUBKTNV-1" source="28gl8YwfFNOOHwbT9DVS-207" target="28gl8YwfFNOOHwbT9DVS-215" edge="1">
          <mxGeometry relative="1" as="geometry" />
        </mxCell>
        <mxCell id="28gl8YwfFNOOHwbT9DVS-206" value="true" style="edgeLabel;html=1;align=center;verticalAlign=middle;resizable=0;points=[];" parent="28gl8YwfFNOOHwbT9DVS-205" vertex="1" connectable="0">
          <mxGeometry x="0.1392" y="-3" relative="1" as="geometry">
            <mxPoint x="1" as="offset" />
          </mxGeometry>
        </mxCell>
        <mxCell id="28gl8YwfFNOOHwbT9DVS-207" value="j&amp;lt;m" style="rhombus;whiteSpace=wrap;html=1;" parent="WIyWlLk6GJQsqaUBKTNV-1" vertex="1">
          <mxGeometry x="1111" y="2430" width="80" height="80" as="geometry" />
        </mxCell>
        <mxCell id="28gl8YwfFNOOHwbT9DVS-208" style="edgeStyle=orthogonalEdgeStyle;rounded=0;orthogonalLoop=1;jettySize=auto;html=1;" parent="WIyWlLk6GJQsqaUBKTNV-1" source="28gl8YwfFNOOHwbT9DVS-209" edge="1">
          <mxGeometry relative="1" as="geometry">
            <mxPoint x="1070" y="2470" as="targetPoint" />
            <Array as="points">
              <mxPoint x="1510" y="2580" />
              <mxPoint x="1070" y="2580" />
            </Array>
          </mxGeometry>
        </mxCell>
        <mxCell id="28gl8YwfFNOOHwbT9DVS-209" value="numbers[i][j]&lt;br&gt;j++" style="rounded=0;whiteSpace=wrap;html=1;" parent="WIyWlLk6GJQsqaUBKTNV-1" vertex="1">
          <mxGeometry x="1460" y="2440" width="120" height="60" as="geometry" />
        </mxCell>
        <mxCell id="28gl8YwfFNOOHwbT9DVS-210" style="edgeStyle=orthogonalEdgeStyle;rounded=0;orthogonalLoop=1;jettySize=auto;html=1;" parent="WIyWlLk6GJQsqaUBKTNV-1" edge="1">
          <mxGeometry relative="1" as="geometry">
            <mxPoint x="790" y="2470" as="targetPoint" />
            <mxPoint x="930" y="2350" as="sourcePoint" />
          </mxGeometry>
        </mxCell>
        <mxCell id="28gl8YwfFNOOHwbT9DVS-211" value="" style="edgeStyle=orthogonalEdgeStyle;rounded=0;orthogonalLoop=1;jettySize=auto;html=1;" parent="WIyWlLk6GJQsqaUBKTNV-1" source="28gl8YwfFNOOHwbT9DVS-215" target="28gl8YwfFNOOHwbT9DVS-209" edge="1">
          <mxGeometry relative="1" as="geometry" />
        </mxCell>
        <mxCell id="28gl8YwfFNOOHwbT9DVS-212" value="true" style="edgeLabel;html=1;align=center;verticalAlign=middle;resizable=0;points=[];" parent="28gl8YwfFNOOHwbT9DVS-211" vertex="1" connectable="0">
          <mxGeometry x="0.0909" y="1" relative="1" as="geometry">
            <mxPoint as="offset" />
          </mxGeometry>
        </mxCell>
        <mxCell id="28gl8YwfFNOOHwbT9DVS-213" value="" style="edgeStyle=orthogonalEdgeStyle;rounded=0;orthogonalLoop=1;jettySize=auto;html=1;" parent="WIyWlLk6GJQsqaUBKTNV-1" source="28gl8YwfFNOOHwbT9DVS-215" target="28gl8YwfFNOOHwbT9DVS-217" edge="1">
          <mxGeometry relative="1" as="geometry" />
        </mxCell>
        <mxCell id="28gl8YwfFNOOHwbT9DVS-214" value="false" style="edgeLabel;html=1;align=center;verticalAlign=middle;resizable=0;points=[];" parent="28gl8YwfFNOOHwbT9DVS-213" vertex="1" connectable="0">
          <mxGeometry x="0.15" y="4" relative="1" as="geometry">
            <mxPoint y="-1" as="offset" />
          </mxGeometry>
        </mxCell>
        <mxCell id="28gl8YwfFNOOHwbT9DVS-215" value="j==0||i==0||i==n-1||j==m-1" style="rhombus;whiteSpace=wrap;html=1;" parent="WIyWlLk6GJQsqaUBKTNV-1" vertex="1">
          <mxGeometry x="1250" y="2360" width="160" height="150" as="geometry" />
        </mxCell>
        <mxCell id="28gl8YwfFNOOHwbT9DVS-216" style="edgeStyle=orthogonalEdgeStyle;rounded=0;orthogonalLoop=1;jettySize=auto;html=1;" parent="WIyWlLk6GJQsqaUBKTNV-1" source="28gl8YwfFNOOHwbT9DVS-217" edge="1">
          <mxGeometry relative="1" as="geometry">
            <mxPoint x="1070" y="2480" as="targetPoint" />
          </mxGeometry>
        </mxCell>
        <mxCell id="28gl8YwfFNOOHwbT9DVS-217" value="f=0&lt;br&gt;j++" style="rounded=0;whiteSpace=wrap;html=1;" parent="WIyWlLk6GJQsqaUBKTNV-1" vertex="1">
          <mxGeometry x="1250" y="2610" width="120" height="60" as="geometry" />
        </mxCell>
        <mxCell id="28gl8YwfFNOOHwbT9DVS-218" value="i++" style="rounded=0;whiteSpace=wrap;html=1;" parent="WIyWlLk6GJQsqaUBKTNV-1" vertex="1">
          <mxGeometry x="930" y="2320" width="120" height="60" as="geometry" />
        </mxCell>
        <mxCell id="28gl8YwfFNOOHwbT9DVS-247" style="edgeStyle=orthogonalEdgeStyle;rounded=0;orthogonalLoop=1;jettySize=auto;html=1;entryX=0;entryY=0.75;entryDx=0;entryDy=0;" parent="WIyWlLk6GJQsqaUBKTNV-1" source="28gl8YwfFNOOHwbT9DVS-221" target="28gl8YwfFNOOHwbT9DVS-226" edge="1">
          <mxGeometry relative="1" as="geometry" />
        </mxCell>
        <mxCell id="28gl8YwfFNOOHwbT9DVS-248" value="true" style="edgeLabel;html=1;align=center;verticalAlign=middle;resizable=0;points=[];" parent="28gl8YwfFNOOHwbT9DVS-247" vertex="1" connectable="0">
          <mxGeometry x="-0.0211" y="-5" relative="1" as="geometry">
            <mxPoint as="offset" />
          </mxGeometry>
        </mxCell>
        <mxCell id="28gl8YwfFNOOHwbT9DVS-251" style="edgeStyle=orthogonalEdgeStyle;rounded=0;orthogonalLoop=1;jettySize=auto;html=1;" parent="WIyWlLk6GJQsqaUBKTNV-1" source="28gl8YwfFNOOHwbT9DVS-221" target="28gl8YwfFNOOHwbT9DVS-250" edge="1">
          <mxGeometry relative="1" as="geometry" />
        </mxCell>
        <mxCell id="28gl8YwfFNOOHwbT9DVS-279" value="false" style="edgeLabel;html=1;align=center;verticalAlign=middle;resizable=0;points=[];" parent="28gl8YwfFNOOHwbT9DVS-251" vertex="1" connectable="0">
          <mxGeometry x="-0.1429" y="-4" relative="1" as="geometry">
            <mxPoint as="offset" />
          </mxGeometry>
        </mxCell>
        <mxCell id="28gl8YwfFNOOHwbT9DVS-221" value="choice==5" style="rhombus;whiteSpace=wrap;html=1;" parent="WIyWlLk6GJQsqaUBKTNV-1" vertex="1">
          <mxGeometry x="450" y="2870" width="80" height="80" as="geometry" />
        </mxCell>
        <mxCell id="28gl8YwfFNOOHwbT9DVS-225" value="" style="edgeStyle=orthogonalEdgeStyle;rounded=0;orthogonalLoop=1;jettySize=auto;html=1;" parent="WIyWlLk6GJQsqaUBKTNV-1" source="28gl8YwfFNOOHwbT9DVS-226" target="28gl8YwfFNOOHwbT9DVS-229" edge="1">
          <mxGeometry relative="1" as="geometry" />
        </mxCell>
        <mxCell id="28gl8YwfFNOOHwbT9DVS-226" value="i=1" style="rounded=0;whiteSpace=wrap;html=1;" parent="WIyWlLk6GJQsqaUBKTNV-1" vertex="1">
          <mxGeometry x="611" y="2897.5" width="120" height="60" as="geometry" />
        </mxCell>
        <mxCell id="28gl8YwfFNOOHwbT9DVS-227" value="" style="edgeStyle=orthogonalEdgeStyle;rounded=0;orthogonalLoop=1;jettySize=auto;html=1;" parent="WIyWlLk6GJQsqaUBKTNV-1" source="28gl8YwfFNOOHwbT9DVS-229" target="28gl8YwfFNOOHwbT9DVS-231" edge="1">
          <mxGeometry relative="1" as="geometry" />
        </mxCell>
        <mxCell id="28gl8YwfFNOOHwbT9DVS-228" value="true" style="edgeLabel;html=1;align=center;verticalAlign=middle;resizable=0;points=[];" parent="28gl8YwfFNOOHwbT9DVS-227" vertex="1" connectable="0">
          <mxGeometry x="-0.3" relative="1" as="geometry">
            <mxPoint y="1" as="offset" />
          </mxGeometry>
        </mxCell>
        <mxCell id="28gl8YwfFNOOHwbT9DVS-249" style="edgeStyle=orthogonalEdgeStyle;rounded=0;orthogonalLoop=1;jettySize=auto;html=1;entryX=1;entryY=0.5;entryDx=0;entryDy=0;exitX=0.5;exitY=1;exitDx=0;exitDy=0;" parent="WIyWlLk6GJQsqaUBKTNV-1" source="28gl8YwfFNOOHwbT9DVS-229" edge="1">
          <mxGeometry relative="1" as="geometry">
            <mxPoint x="805" y="3157.5" as="sourcePoint" />
            <mxPoint x="2114" y="1420" as="targetPoint" />
          </mxGeometry>
        </mxCell>
        <mxCell id="28gl8YwfFNOOHwbT9DVS-229" value="i&amp;lt;n" style="rhombus;whiteSpace=wrap;html=1;" parent="WIyWlLk6GJQsqaUBKTNV-1" vertex="1">
          <mxGeometry x="761" y="2857.5" width="80" height="80" as="geometry" />
        </mxCell>
        <mxCell id="28gl8YwfFNOOHwbT9DVS-230" value="" style="edgeStyle=orthogonalEdgeStyle;rounded=0;orthogonalLoop=1;jettySize=auto;html=1;" parent="WIyWlLk6GJQsqaUBKTNV-1" source="28gl8YwfFNOOHwbT9DVS-231" target="28gl8YwfFNOOHwbT9DVS-235" edge="1">
          <mxGeometry relative="1" as="geometry" />
        </mxCell>
        <mxCell id="28gl8YwfFNOOHwbT9DVS-231" value="j=0" style="rounded=0;whiteSpace=wrap;html=1;" parent="WIyWlLk6GJQsqaUBKTNV-1" vertex="1">
          <mxGeometry x="891" y="2867.5" width="120" height="60" as="geometry" />
        </mxCell>
        <mxCell id="28gl8YwfFNOOHwbT9DVS-232" style="edgeStyle=orthogonalEdgeStyle;rounded=0;orthogonalLoop=1;jettySize=auto;html=1;entryX=1;entryY=0.5;entryDx=0;entryDy=0;" parent="WIyWlLk6GJQsqaUBKTNV-1" source="28gl8YwfFNOOHwbT9DVS-235" edge="1">
          <mxGeometry relative="1" as="geometry">
            <mxPoint x="1011" y="2777.5" as="targetPoint" />
            <Array as="points">
              <mxPoint x="1112" y="2777.5" />
            </Array>
          </mxGeometry>
        </mxCell>
        <mxCell id="28gl8YwfFNOOHwbT9DVS-233" value="" style="edgeStyle=orthogonalEdgeStyle;rounded=0;orthogonalLoop=1;jettySize=auto;html=1;" parent="WIyWlLk6GJQsqaUBKTNV-1" source="28gl8YwfFNOOHwbT9DVS-235" target="28gl8YwfFNOOHwbT9DVS-243" edge="1">
          <mxGeometry relative="1" as="geometry" />
        </mxCell>
        <mxCell id="28gl8YwfFNOOHwbT9DVS-234" value="true" style="edgeLabel;html=1;align=center;verticalAlign=middle;resizable=0;points=[];" parent="28gl8YwfFNOOHwbT9DVS-233" vertex="1" connectable="0">
          <mxGeometry x="0.1392" y="-3" relative="1" as="geometry">
            <mxPoint x="1" as="offset" />
          </mxGeometry>
        </mxCell>
        <mxCell id="28gl8YwfFNOOHwbT9DVS-235" value="j&amp;lt;m" style="rhombus;whiteSpace=wrap;html=1;" parent="WIyWlLk6GJQsqaUBKTNV-1" vertex="1">
          <mxGeometry x="1072" y="2857.5" width="80" height="80" as="geometry" />
        </mxCell>
        <mxCell id="28gl8YwfFNOOHwbT9DVS-236" style="edgeStyle=orthogonalEdgeStyle;rounded=0;orthogonalLoop=1;jettySize=auto;html=1;" parent="WIyWlLk6GJQsqaUBKTNV-1" source="28gl8YwfFNOOHwbT9DVS-237" edge="1">
          <mxGeometry relative="1" as="geometry">
            <mxPoint x="1031" y="2897.5" as="targetPoint" />
            <Array as="points">
              <mxPoint x="1471" y="3007.5" />
              <mxPoint x="1031" y="3007.5" />
            </Array>
          </mxGeometry>
        </mxCell>
        <mxCell id="28gl8YwfFNOOHwbT9DVS-237" value="numbers[i][j]&lt;br&gt;j++" style="rounded=0;whiteSpace=wrap;html=1;" parent="WIyWlLk6GJQsqaUBKTNV-1" vertex="1">
          <mxGeometry x="1421" y="2867.5" width="120" height="60" as="geometry" />
        </mxCell>
        <mxCell id="28gl8YwfFNOOHwbT9DVS-238" style="edgeStyle=orthogonalEdgeStyle;rounded=0;orthogonalLoop=1;jettySize=auto;html=1;" parent="WIyWlLk6GJQsqaUBKTNV-1" edge="1">
          <mxGeometry relative="1" as="geometry">
            <mxPoint x="751" y="2897.5" as="targetPoint" />
            <mxPoint x="891" y="2777.5" as="sourcePoint" />
          </mxGeometry>
        </mxCell>
        <mxCell id="28gl8YwfFNOOHwbT9DVS-239" value="" style="edgeStyle=orthogonalEdgeStyle;rounded=0;orthogonalLoop=1;jettySize=auto;html=1;" parent="WIyWlLk6GJQsqaUBKTNV-1" source="28gl8YwfFNOOHwbT9DVS-243" target="28gl8YwfFNOOHwbT9DVS-237" edge="1">
          <mxGeometry relative="1" as="geometry" />
        </mxCell>
        <mxCell id="28gl8YwfFNOOHwbT9DVS-240" value="true" style="edgeLabel;html=1;align=center;verticalAlign=middle;resizable=0;points=[];" parent="28gl8YwfFNOOHwbT9DVS-239" vertex="1" connectable="0">
          <mxGeometry x="0.0909" y="1" relative="1" as="geometry">
            <mxPoint as="offset" />
          </mxGeometry>
        </mxCell>
        <mxCell id="28gl8YwfFNOOHwbT9DVS-241" value="" style="edgeStyle=orthogonalEdgeStyle;rounded=0;orthogonalLoop=1;jettySize=auto;html=1;" parent="WIyWlLk6GJQsqaUBKTNV-1" source="28gl8YwfFNOOHwbT9DVS-243" target="28gl8YwfFNOOHwbT9DVS-245" edge="1">
          <mxGeometry relative="1" as="geometry" />
        </mxCell>
        <mxCell id="28gl8YwfFNOOHwbT9DVS-242" value="false" style="edgeLabel;html=1;align=center;verticalAlign=middle;resizable=0;points=[];" parent="28gl8YwfFNOOHwbT9DVS-241" vertex="1" connectable="0">
          <mxGeometry x="0.15" y="4" relative="1" as="geometry">
            <mxPoint y="-1" as="offset" />
          </mxGeometry>
        </mxCell>
        <mxCell id="28gl8YwfFNOOHwbT9DVS-243" value="i==j" style="rhombus;whiteSpace=wrap;html=1;" parent="WIyWlLk6GJQsqaUBKTNV-1" vertex="1">
          <mxGeometry x="1211" y="2787.5" width="160" height="150" as="geometry" />
        </mxCell>
        <mxCell id="28gl8YwfFNOOHwbT9DVS-244" style="edgeStyle=orthogonalEdgeStyle;rounded=0;orthogonalLoop=1;jettySize=auto;html=1;" parent="WIyWlLk6GJQsqaUBKTNV-1" source="28gl8YwfFNOOHwbT9DVS-245" edge="1">
          <mxGeometry relative="1" as="geometry">
            <mxPoint x="1031" y="2907.5" as="targetPoint" />
          </mxGeometry>
        </mxCell>
        <mxCell id="28gl8YwfFNOOHwbT9DVS-245" value="f=0&lt;br&gt;j++" style="rounded=0;whiteSpace=wrap;html=1;" parent="WIyWlLk6GJQsqaUBKTNV-1" vertex="1">
          <mxGeometry x="1211" y="3037.5" width="120" height="60" as="geometry" />
        </mxCell>
        <mxCell id="28gl8YwfFNOOHwbT9DVS-246" value="i++" style="rounded=0;whiteSpace=wrap;html=1;" parent="WIyWlLk6GJQsqaUBKTNV-1" vertex="1">
          <mxGeometry x="891" y="2747.5" width="120" height="60" as="geometry" />
        </mxCell>
        <mxCell id="28gl8YwfFNOOHwbT9DVS-274" style="edgeStyle=orthogonalEdgeStyle;rounded=0;orthogonalLoop=1;jettySize=auto;html=1;" parent="WIyWlLk6GJQsqaUBKTNV-1" source="28gl8YwfFNOOHwbT9DVS-250" target="28gl8YwfFNOOHwbT9DVS-253" edge="1">
          <mxGeometry relative="1" as="geometry" />
        </mxCell>
        <mxCell id="28gl8YwfFNOOHwbT9DVS-275" value="true" style="edgeLabel;html=1;align=center;verticalAlign=middle;resizable=0;points=[];" parent="28gl8YwfFNOOHwbT9DVS-274" vertex="1" connectable="0">
          <mxGeometry x="0.1167" y="-2" relative="1" as="geometry">
            <mxPoint y="1" as="offset" />
          </mxGeometry>
        </mxCell>
        <mxCell id="28gl8YwfFNOOHwbT9DVS-282" style="edgeStyle=orthogonalEdgeStyle;rounded=0;orthogonalLoop=1;jettySize=auto;html=1;entryX=0.5;entryY=0;entryDx=0;entryDy=0;" parent="WIyWlLk6GJQsqaUBKTNV-1" source="28gl8YwfFNOOHwbT9DVS-250" target="28gl8YwfFNOOHwbT9DVS-281" edge="1">
          <mxGeometry relative="1" as="geometry" />
        </mxCell>
        <mxCell id="28gl8YwfFNOOHwbT9DVS-287" value="false" style="edgeLabel;html=1;align=center;verticalAlign=middle;resizable=0;points=[];" parent="28gl8YwfFNOOHwbT9DVS-282" vertex="1" connectable="0">
          <mxGeometry x="-0.235" y="7" relative="1" as="geometry">
            <mxPoint y="-1" as="offset" />
          </mxGeometry>
        </mxCell>
        <mxCell id="28gl8YwfFNOOHwbT9DVS-250" value="choice==6" style="rhombus;whiteSpace=wrap;html=1;" parent="WIyWlLk6GJQsqaUBKTNV-1" vertex="1">
          <mxGeometry x="460" y="3360" width="80" height="80" as="geometry" />
        </mxCell>
        <mxCell id="28gl8YwfFNOOHwbT9DVS-252" value="" style="edgeStyle=orthogonalEdgeStyle;rounded=0;orthogonalLoop=1;jettySize=auto;html=1;" parent="WIyWlLk6GJQsqaUBKTNV-1" source="28gl8YwfFNOOHwbT9DVS-253" target="28gl8YwfFNOOHwbT9DVS-256" edge="1">
          <mxGeometry relative="1" as="geometry" />
        </mxCell>
        <mxCell id="28gl8YwfFNOOHwbT9DVS-253" value="i=1" style="rounded=0;whiteSpace=wrap;html=1;" parent="WIyWlLk6GJQsqaUBKTNV-1" vertex="1">
          <mxGeometry x="640" y="3350" width="120" height="60" as="geometry" />
        </mxCell>
        <mxCell id="28gl8YwfFNOOHwbT9DVS-254" value="" style="edgeStyle=orthogonalEdgeStyle;rounded=0;orthogonalLoop=1;jettySize=auto;html=1;" parent="WIyWlLk6GJQsqaUBKTNV-1" source="28gl8YwfFNOOHwbT9DVS-256" target="28gl8YwfFNOOHwbT9DVS-258" edge="1">
          <mxGeometry relative="1" as="geometry" />
        </mxCell>
        <mxCell id="28gl8YwfFNOOHwbT9DVS-255" value="true" style="edgeLabel;html=1;align=center;verticalAlign=middle;resizable=0;points=[];" parent="28gl8YwfFNOOHwbT9DVS-254" vertex="1" connectable="0">
          <mxGeometry x="-0.3" relative="1" as="geometry">
            <mxPoint y="1" as="offset" />
          </mxGeometry>
        </mxCell>
        <mxCell id="28gl8YwfFNOOHwbT9DVS-280" style="edgeStyle=orthogonalEdgeStyle;rounded=0;orthogonalLoop=1;jettySize=auto;html=1;entryX=1;entryY=0.25;entryDx=0;entryDy=0;" parent="WIyWlLk6GJQsqaUBKTNV-1" source="28gl8YwfFNOOHwbT9DVS-256" edge="1">
          <mxGeometry relative="1" as="geometry">
            <mxPoint x="878.45" y="3606.82" as="sourcePoint" />
            <mxPoint x="362.9954545454545" y="1263.1836363636364" as="targetPoint" />
            <Array as="points">
              <mxPoint x="830" y="3607" />
              <mxPoint x="2118" y="3607" />
              <mxPoint x="2118" y="1263" />
            </Array>
          </mxGeometry>
        </mxCell>
        <mxCell id="28gl8YwfFNOOHwbT9DVS-256" value="i&amp;lt;n" style="rhombus;whiteSpace=wrap;html=1;" parent="WIyWlLk6GJQsqaUBKTNV-1" vertex="1">
          <mxGeometry x="790" y="3310" width="80" height="80" as="geometry" />
        </mxCell>
        <mxCell id="28gl8YwfFNOOHwbT9DVS-257" value="" style="edgeStyle=orthogonalEdgeStyle;rounded=0;orthogonalLoop=1;jettySize=auto;html=1;" parent="WIyWlLk6GJQsqaUBKTNV-1" source="28gl8YwfFNOOHwbT9DVS-258" target="28gl8YwfFNOOHwbT9DVS-262" edge="1">
          <mxGeometry relative="1" as="geometry" />
        </mxCell>
        <mxCell id="28gl8YwfFNOOHwbT9DVS-258" value="j=0" style="rounded=0;whiteSpace=wrap;html=1;" parent="WIyWlLk6GJQsqaUBKTNV-1" vertex="1">
          <mxGeometry x="920" y="3320" width="120" height="60" as="geometry" />
        </mxCell>
        <mxCell id="28gl8YwfFNOOHwbT9DVS-259" style="edgeStyle=orthogonalEdgeStyle;rounded=0;orthogonalLoop=1;jettySize=auto;html=1;entryX=1;entryY=0.5;entryDx=0;entryDy=0;" parent="WIyWlLk6GJQsqaUBKTNV-1" source="28gl8YwfFNOOHwbT9DVS-262" edge="1">
          <mxGeometry relative="1" as="geometry">
            <mxPoint x="1040" y="3230" as="targetPoint" />
            <Array as="points">
              <mxPoint x="1141" y="3230" />
            </Array>
          </mxGeometry>
        </mxCell>
        <mxCell id="28gl8YwfFNOOHwbT9DVS-260" value="" style="edgeStyle=orthogonalEdgeStyle;rounded=0;orthogonalLoop=1;jettySize=auto;html=1;" parent="WIyWlLk6GJQsqaUBKTNV-1" source="28gl8YwfFNOOHwbT9DVS-262" target="28gl8YwfFNOOHwbT9DVS-270" edge="1">
          <mxGeometry relative="1" as="geometry" />
        </mxCell>
        <mxCell id="28gl8YwfFNOOHwbT9DVS-261" value="true" style="edgeLabel;html=1;align=center;verticalAlign=middle;resizable=0;points=[];" parent="28gl8YwfFNOOHwbT9DVS-260" vertex="1" connectable="0">
          <mxGeometry x="0.1392" y="-3" relative="1" as="geometry">
            <mxPoint x="1" as="offset" />
          </mxGeometry>
        </mxCell>
        <mxCell id="28gl8YwfFNOOHwbT9DVS-262" value="j&amp;lt;m" style="rhombus;whiteSpace=wrap;html=1;" parent="WIyWlLk6GJQsqaUBKTNV-1" vertex="1">
          <mxGeometry x="1101" y="3310" width="80" height="80" as="geometry" />
        </mxCell>
        <mxCell id="28gl8YwfFNOOHwbT9DVS-263" style="edgeStyle=orthogonalEdgeStyle;rounded=0;orthogonalLoop=1;jettySize=auto;html=1;" parent="WIyWlLk6GJQsqaUBKTNV-1" source="28gl8YwfFNOOHwbT9DVS-264" edge="1">
          <mxGeometry relative="1" as="geometry">
            <mxPoint x="1060" y="3350" as="targetPoint" />
            <Array as="points">
              <mxPoint x="1500" y="3460" />
              <mxPoint x="1060" y="3460" />
            </Array>
          </mxGeometry>
        </mxCell>
        <mxCell id="28gl8YwfFNOOHwbT9DVS-264" value="numbers[i][j]&lt;br&gt;j++" style="rounded=0;whiteSpace=wrap;html=1;" parent="WIyWlLk6GJQsqaUBKTNV-1" vertex="1">
          <mxGeometry x="1450" y="3320" width="120" height="60" as="geometry" />
        </mxCell>
        <mxCell id="28gl8YwfFNOOHwbT9DVS-265" style="edgeStyle=orthogonalEdgeStyle;rounded=0;orthogonalLoop=1;jettySize=auto;html=1;" parent="WIyWlLk6GJQsqaUBKTNV-1" edge="1">
          <mxGeometry relative="1" as="geometry">
            <mxPoint x="780" y="3350" as="targetPoint" />
            <mxPoint x="920" y="3230" as="sourcePoint" />
          </mxGeometry>
        </mxCell>
        <mxCell id="28gl8YwfFNOOHwbT9DVS-266" value="" style="edgeStyle=orthogonalEdgeStyle;rounded=0;orthogonalLoop=1;jettySize=auto;html=1;" parent="WIyWlLk6GJQsqaUBKTNV-1" source="28gl8YwfFNOOHwbT9DVS-270" target="28gl8YwfFNOOHwbT9DVS-264" edge="1">
          <mxGeometry relative="1" as="geometry" />
        </mxCell>
        <mxCell id="28gl8YwfFNOOHwbT9DVS-267" value="true" style="edgeLabel;html=1;align=center;verticalAlign=middle;resizable=0;points=[];" parent="28gl8YwfFNOOHwbT9DVS-266" vertex="1" connectable="0">
          <mxGeometry x="0.0909" y="1" relative="1" as="geometry">
            <mxPoint as="offset" />
          </mxGeometry>
        </mxCell>
        <mxCell id="28gl8YwfFNOOHwbT9DVS-268" value="" style="edgeStyle=orthogonalEdgeStyle;rounded=0;orthogonalLoop=1;jettySize=auto;html=1;" parent="WIyWlLk6GJQsqaUBKTNV-1" source="28gl8YwfFNOOHwbT9DVS-270" target="28gl8YwfFNOOHwbT9DVS-272" edge="1">
          <mxGeometry relative="1" as="geometry" />
        </mxCell>
        <mxCell id="28gl8YwfFNOOHwbT9DVS-269" value="false" style="edgeLabel;html=1;align=center;verticalAlign=middle;resizable=0;points=[];" parent="28gl8YwfFNOOHwbT9DVS-268" vertex="1" connectable="0">
          <mxGeometry x="0.15" y="4" relative="1" as="geometry">
            <mxPoint y="-1" as="offset" />
          </mxGeometry>
        </mxCell>
        <mxCell id="28gl8YwfFNOOHwbT9DVS-270" value="(prime(numbers[i][j]))" style="rhombus;whiteSpace=wrap;html=1;" parent="WIyWlLk6GJQsqaUBKTNV-1" vertex="1">
          <mxGeometry x="1240" y="3240" width="160" height="150" as="geometry" />
        </mxCell>
        <mxCell id="28gl8YwfFNOOHwbT9DVS-271" style="edgeStyle=orthogonalEdgeStyle;rounded=0;orthogonalLoop=1;jettySize=auto;html=1;" parent="WIyWlLk6GJQsqaUBKTNV-1" source="28gl8YwfFNOOHwbT9DVS-272" edge="1">
          <mxGeometry relative="1" as="geometry">
            <mxPoint x="1060" y="3360" as="targetPoint" />
          </mxGeometry>
        </mxCell>
        <mxCell id="28gl8YwfFNOOHwbT9DVS-272" value="f=0&lt;br&gt;j++" style="rounded=0;whiteSpace=wrap;html=1;" parent="WIyWlLk6GJQsqaUBKTNV-1" vertex="1">
          <mxGeometry x="1240" y="3490" width="120" height="60" as="geometry" />
        </mxCell>
        <mxCell id="28gl8YwfFNOOHwbT9DVS-273" value="i++" style="rounded=0;whiteSpace=wrap;html=1;" parent="WIyWlLk6GJQsqaUBKTNV-1" vertex="1">
          <mxGeometry x="920" y="3200" width="120" height="60" as="geometry" />
        </mxCell>
        <mxCell id="28gl8YwfFNOOHwbT9DVS-285" style="edgeStyle=orthogonalEdgeStyle;rounded=0;orthogonalLoop=1;jettySize=auto;html=1;" parent="WIyWlLk6GJQsqaUBKTNV-1" source="28gl8YwfFNOOHwbT9DVS-281" target="28gl8YwfFNOOHwbT9DVS-283" edge="1">
          <mxGeometry relative="1" as="geometry" />
        </mxCell>
        <mxCell id="28gl8YwfFNOOHwbT9DVS-289" style="edgeStyle=orthogonalEdgeStyle;rounded=0;orthogonalLoop=1;jettySize=auto;html=1;" parent="WIyWlLk6GJQsqaUBKTNV-1" source="28gl8YwfFNOOHwbT9DVS-281" target="28gl8YwfFNOOHwbT9DVS-288" edge="1">
          <mxGeometry relative="1" as="geometry" />
        </mxCell>
        <mxCell id="28gl8YwfFNOOHwbT9DVS-291" value="default" style="edgeLabel;html=1;align=center;verticalAlign=middle;resizable=0;points=[];" parent="28gl8YwfFNOOHwbT9DVS-289" vertex="1" connectable="0">
          <mxGeometry x="-0.2769" y="7" relative="1" as="geometry">
            <mxPoint y="-1" as="offset" />
          </mxGeometry>
        </mxCell>
        <mxCell id="28gl8YwfFNOOHwbT9DVS-281" value="choice==7" style="rhombus;whiteSpace=wrap;html=1;" parent="WIyWlLk6GJQsqaUBKTNV-1" vertex="1">
          <mxGeometry x="480" y="3820" width="80" height="80" as="geometry" />
        </mxCell>
        <mxCell id="28gl8YwfFNOOHwbT9DVS-286" style="edgeStyle=orthogonalEdgeStyle;rounded=0;orthogonalLoop=1;jettySize=auto;html=1;" parent="WIyWlLk6GJQsqaUBKTNV-1" source="28gl8YwfFNOOHwbT9DVS-283" target="28gl8YwfFNOOHwbT9DVS-284" edge="1">
          <mxGeometry relative="1" as="geometry" />
        </mxCell>
        <mxCell id="28gl8YwfFNOOHwbT9DVS-283" value="end" style="shape=parallelogram;perimeter=parallelogramPerimeter;whiteSpace=wrap;html=1;fixedSize=1;" parent="WIyWlLk6GJQsqaUBKTNV-1" vertex="1">
          <mxGeometry x="721" y="3830" width="120" height="60" as="geometry" />
        </mxCell>
        <mxCell id="28gl8YwfFNOOHwbT9DVS-284" value="end" style="ellipse;whiteSpace=wrap;html=1;" parent="WIyWlLk6GJQsqaUBKTNV-1" vertex="1">
          <mxGeometry x="1030" y="3830" width="120" height="80" as="geometry" />
        </mxCell>
        <mxCell id="28gl8YwfFNOOHwbT9DVS-292" style="edgeStyle=orthogonalEdgeStyle;rounded=0;orthogonalLoop=1;jettySize=auto;html=1;entryX=1;entryY=0.5;entryDx=0;entryDy=0;" parent="WIyWlLk6GJQsqaUBKTNV-1" source="28gl8YwfFNOOHwbT9DVS-288" target="28gl8YwfFNOOHwbT9DVS-67" edge="1">
          <mxGeometry relative="1" as="geometry">
            <Array as="points">
              <mxPoint x="2120" y="4070" />
              <mxPoint x="2120" y="1020" />
            </Array>
          </mxGeometry>
        </mxCell>
        <mxCell id="28gl8YwfFNOOHwbT9DVS-288" value="nhap lai tu 1-7" style="whiteSpace=wrap;html=1;shape=parallelogram;perimeter=parallelogramPerimeter;fixedSize=1;" parent="WIyWlLk6GJQsqaUBKTNV-1" vertex="1">
          <mxGeometry x="480" y="4030" width="190" height="80" as="geometry" />
        </mxCell>
      </root>
    </mxGraphModel>
  </diagram>
</mxfile>
